<svg width="74" height="74" viewBox="0 0 74 74" fill="none" xmlns="http://www.w3.org/2000/svg">
<path d="M56.8443 64.5557H17.1495C15.1051 64.5557 13.1445 63.7436 11.6989 62.298C10.2533 60.8524 9.44116 58.8918 9.44116 56.8474V17.1526C9.44116 15.1082 10.2533 13.1476 11.6989 11.702C13.1445 10.2564 15.1051 9.44424 17.1495 9.44424H56.8443C58.8887 9.44424 60.8494 10.2564 62.2949 11.702C63.7405 13.1476 64.5527 15.1082 64.5527 17.1526V56.8474C64.5527 58.8918 63.7405 60.8524 62.2949 62.298C60.8494 63.7436 58.8887 64.5557 56.8443 64.5557ZM17.1495 12.5276C15.9229 12.5276 14.7465 13.0149 13.8791 13.8822C13.0118 14.7496 12.5245 15.926 12.5245 17.1526V56.8474C12.5245 58.074 13.0118 59.2504 13.8791 60.1178C14.7465 60.9851 15.9229 61.4724 17.1495 61.4724H56.8443C58.071 61.4724 59.2473 60.9851 60.1147 60.1178C60.9821 59.2504 61.4693 58.074 61.4693 56.8474V17.1526C61.4693 15.926 60.9821 14.7496 60.1147 13.8822C59.2473 13.0149 58.071 12.5276 56.8443 12.5276H17.1495Z" fill="#262B5B"/>
<path d="M20.1773 25.5393C19.7701 25.5322 19.3808 25.3701 19.0889 25.086C18.7999 24.7969 18.6375 24.4049 18.6375 23.9961C18.6375 23.5873 18.7999 23.1952 19.0889 22.9061C19.3801 22.6213 19.77 22.46 20.1773 22.4559H23.2792C23.6862 22.4612 24.0757 22.6223 24.3676 22.9061C24.5112 23.0493 24.6252 23.2194 24.703 23.4067C24.7807 23.594 24.8208 23.7948 24.8208 23.9976C24.8208 24.4065 24.6584 24.7986 24.3693 25.0877C24.0802 25.3768 23.688 25.5393 23.2792 25.5393H20.1773Z" fill="#262B5B"/>
<path d="M20.1773 38.5417C19.7707 38.5342 19.382 38.3734 19.0889 38.0915C18.9453 37.9483 18.8314 37.7782 18.7537 37.5909C18.676 37.4036 18.636 37.2028 18.636 37C18.636 36.7972 18.676 36.5964 18.7537 36.4091C18.8314 36.2218 18.9453 36.0517 19.0889 35.9085C19.3808 35.6247 19.7703 35.4636 20.1773 35.4583H23.2792C23.6859 35.4652 24.0749 35.6261 24.3676 35.9085C24.5111 36.0517 24.6251 36.2218 24.7028 36.4091C24.7805 36.5964 24.8205 36.7972 24.8205 37C24.8205 37.2028 24.7805 37.4036 24.7028 37.5909C24.6251 37.7782 24.5111 37.9483 24.3676 38.0915C24.0757 38.3753 23.6862 38.5364 23.2792 38.5417H20.1773Z" fill="#262B5B"/>
<path d="M20.1773 51.5533C19.7701 51.5463 19.3808 51.3842 19.0889 51.1001C18.7999 50.811 18.6375 50.4189 18.6375 50.0101C18.6375 49.6013 18.7999 49.2093 19.0889 48.9202C19.3808 48.6364 19.7703 48.4753 20.1773 48.47H23.2792C23.6862 48.4753 24.0757 48.6364 24.3676 48.9202C24.5112 49.0633 24.6252 49.2335 24.703 49.4208C24.7807 49.6081 24.8208 49.8089 24.8208 50.0117C24.8208 50.4205 24.6584 50.8127 24.3693 51.1018C24.0802 51.3909 23.688 51.5533 23.2792 51.5533H20.1773Z" fill="#262B5B"/>
<path d="M32.5415 25.5331C32.1326 25.5331 31.7405 25.3706 31.4514 25.0815C31.1623 24.7924 30.9998 24.4003 30.9998 23.9914C30.9998 23.5825 31.1623 23.1904 31.4514 22.9013C31.7405 22.6122 32.1326 22.4497 32.5415 22.4497H53.8165C54.2254 22.4497 54.6175 22.6122 54.9066 22.9013C55.1957 23.1904 55.3582 23.5825 55.3582 23.9914C55.3582 24.4003 55.1957 24.7924 54.9066 25.0815C54.6175 25.3706 54.2254 25.5331 53.8165 25.5331H32.5415Z" fill="#262B5B"/>
<path d="M32.5415 38.5417C32.1326 38.5417 31.7405 38.3793 31.4514 38.0901C31.1623 37.801 30.9998 37.4089 30.9998 37C30.9998 36.5911 31.1623 36.199 31.4514 35.9099C31.7405 35.6208 32.1326 35.4583 32.5415 35.4583H53.8165C54.2254 35.4583 54.6175 35.6208 54.9066 35.9099C55.1957 36.199 55.3582 36.5911 55.3582 37C55.3582 37.4089 55.1957 37.801 54.9066 38.0901C54.6175 38.3793 54.2254 38.5417 53.8165 38.5417H32.5415Z" fill="#262B5B"/>
<path d="M32.5415 51.5472C32.1326 51.5472 31.7405 51.3847 31.4514 51.0956C31.1623 50.8065 30.9998 50.4144 30.9998 50.0055C30.9998 49.5966 31.1623 49.2045 31.4514 48.9154C31.7405 48.6263 32.1326 48.4638 32.5415 48.4638H53.8165C54.2254 48.4638 54.6175 48.6263 54.9066 48.9154C55.1957 49.2045 55.3582 49.5966 55.3582 50.0055C55.3582 50.4144 55.1957 50.8065 54.9066 51.0956C54.6175 51.3847 54.2254 51.5472 53.8165 51.5472H32.5415Z" fill="#262B5B"/>
</svg>
