<svg width="74" height="73" viewBox="0 0 74 73" fill="none" xmlns="http://www.w3.org/2000/svg">
<path d="M56.5732 15.0715H50.6875V10.7828C50.6875 10.3794 50.5273 9.99262 50.2421 9.7074C49.9569 9.42219 49.5701 9.26196 49.1667 9.26196C48.7634 9.26196 48.3765 9.42219 48.0913 9.7074C47.8061 9.99262 47.6459 10.3794 47.6459 10.7828V15.0715H26.3542V10.7828C26.3542 10.3794 26.194 9.99262 25.9088 9.7074C25.6236 9.42219 25.2367 9.26196 24.8334 9.26196C24.43 9.26196 24.0432 9.42219 23.758 9.7074C23.4728 9.99262 23.3125 10.3794 23.3125 10.7828V15.0715H17.4269C15.4102 15.0715 13.476 15.8727 12.05 17.2988C10.6239 18.7248 9.82275 20.659 9.82275 22.6757V56.134C9.82275 58.1508 10.6239 60.0849 12.05 61.511C13.476 62.9371 15.4102 63.7382 17.4269 63.7382H56.5732C57.5718 63.7382 58.5606 63.5415 59.4832 63.1594C60.4057 62.7772 61.244 62.2171 61.9501 61.511C62.6562 60.8049 63.2164 59.9666 63.5985 59.044C63.9807 58.1215 64.1773 57.1326 64.1773 56.134V22.6757C64.1773 21.6771 63.9807 20.6883 63.5985 19.7657C63.2164 18.8431 62.6562 18.0049 61.9501 17.2988C61.244 16.5926 60.4057 16.0325 59.4832 15.6504C58.5606 15.2682 57.5718 15.0715 56.5732 15.0715ZM61.1357 56.134C61.1357 57.3441 60.655 58.5046 59.7993 59.3602C58.9437 60.2159 57.7832 60.6965 56.5732 60.6965H17.4269C16.2169 60.6965 15.0564 60.2159 14.2007 59.3602C13.3451 58.5046 12.8644 57.3441 12.8644 56.134V30.5232H61.1357V56.134ZM61.1357 27.4815H12.8644V22.6757C12.8644 21.4657 13.3451 20.3052 14.2007 19.4495C15.0564 18.5939 16.2169 18.1132 17.4269 18.1132H23.3125V19.9078C23.3125 20.3111 23.4728 20.698 23.758 20.9832C24.0432 21.2684 24.43 21.4286 24.8334 21.4286C25.2367 21.4286 25.6236 21.2684 25.9088 20.9832C26.194 20.698 26.3542 20.3111 26.3542 19.9078V18.1132H47.6459V19.9078C47.6459 20.3111 47.8061 20.698 48.0913 20.9832C48.3765 21.2684 48.7634 21.4286 49.1667 21.4286C49.5701 21.4286 49.9569 21.2684 50.2421 20.9832C50.5273 20.698 50.6875 20.3111 50.6875 19.9078V18.1132H56.5884C57.7984 18.1132 58.9589 18.5939 59.8146 19.4495C60.6702 20.3052 61.1509 21.4657 61.1509 22.6757L61.1357 27.4815Z" fill="white"/>
<path d="M35.4548 52.2345V41.7134C35.4548 41.6729 35.444 41.6332 35.4235 41.5983C35.4031 41.5633 35.3737 41.5345 35.3384 41.5147C35.3031 41.4949 35.2631 41.4848 35.2227 41.4855C35.1822 41.4862 35.1427 41.4977 35.1081 41.5187L33.1675 42.7111C33.0983 42.7539 33.0189 42.7775 32.9375 42.7794C32.8561 42.7812 32.7757 42.7612 32.7046 42.7215C32.6335 42.6818 32.5744 42.6237 32.5333 42.5534C32.4922 42.4832 32.4707 42.4031 32.4709 42.3217V40.3446C32.4707 40.1866 32.5114 40.0312 32.5893 39.8936C32.6671 39.756 32.7794 39.641 32.915 39.5599L35.2389 38.1699C35.3803 38.0847 35.5422 38.0395 35.7073 38.0391H37.6083C37.7282 38.0391 37.8468 38.0627 37.9575 38.1085C38.0682 38.1544 38.1688 38.2216 38.2536 38.3063C38.3383 38.3911 38.4055 38.4917 38.4514 38.6024C38.4972 38.7131 38.5208 38.8317 38.5208 38.9516V52.2345C38.5208 52.3544 38.4972 52.473 38.4514 52.5837C38.4055 52.6944 38.3383 52.795 38.2536 52.8798C38.1688 52.9645 38.0682 53.0317 37.9575 53.0776C37.8468 53.1234 37.7282 53.147 37.6083 53.147H36.3643C36.1228 53.1462 35.8915 53.0497 35.721 52.8787C35.5505 52.7076 35.4548 52.476 35.4548 52.2345Z" fill="white"/>
</svg>
