<svg width="65" height="58" viewBox="0 0 65 58" fill="none" xmlns="http://www.w3.org/2000/svg">
<path d="M4.09132 58C3.0085 58 1.96983 57.5205 1.20293 56.6666C0.436038 55.8128 0.00346226 54.6541 0 53.4446V47.1759L0.00981139 9.13271C0.00981139 6.71056 0.87122 4.38762 2.40454 2.67491C3.93785 0.962193 6.01747 0 8.18591 0H56.8239C57.8976 0 58.9608 0.236225 59.9528 0.695187C60.9447 1.15415 61.8461 1.82686 62.6053 2.67491C63.3645 3.52296 63.9667 4.52974 64.3776 5.63777C64.7885 6.7458 65 7.93338 65 9.13271V39.8551C65 41.0545 64.7885 42.242 64.3776 43.3501C63.9667 44.4581 63.3645 45.4649 62.6053 46.3129C61.8461 47.161 60.9447 47.8337 59.9528 48.2927C58.9608 48.7516 57.8976 48.9878 56.8239 48.9878H15.8714C15.2274 48.986 14.5894 49.1268 13.9944 49.402C13.3993 49.6773 12.8591 50.0816 12.4048 50.5915L6.98239 56.6593C6.6034 57.0846 6.15287 57.422 5.6567 57.6521C5.16054 57.8822 4.62854 58.0004 4.09132 58ZM8.18591 3.66039C6.88485 3.66039 5.63708 4.23771 4.71709 5.26533C3.7971 6.29296 3.28025 7.68673 3.28025 9.14001L3.25409 47.1723V53.4336C3.25445 53.6142 3.30271 53.7906 3.39278 53.9405C3.48284 54.0904 3.61068 54.2072 3.76012 54.276C3.90957 54.3448 4.07392 54.3626 4.23241 54.3271C4.3909 54.2916 4.53641 54.2044 4.65057 54.0766L10.0926 48.0015C10.8496 47.151 11.7502 46.4767 12.7422 46.0177C13.7341 45.5587 14.7977 45.3241 15.8714 45.3275H56.8239C58.125 45.3275 59.3727 44.7501 60.2927 43.7225C61.2127 42.6949 61.7296 41.3011 61.7296 39.8478V9.14001C61.7296 7.68673 61.2127 6.29296 60.2927 5.26533C59.3727 4.23771 58.125 3.66039 56.8239 3.66039H8.18591Z" fill="#262B5B"/>
</svg>
