<svg width="74" height="73" viewBox="0 0 74 73" fill="none" xmlns="http://www.w3.org/2000/svg">
<path d="M56.5731 15.0715H50.6875V10.7827C50.6875 10.3794 50.5273 9.99252 50.242 9.70731C49.9568 9.4221 49.57 9.26187 49.1666 9.26187C48.7633 9.26187 48.3765 9.4221 48.0913 9.70731C47.806 9.99252 47.6458 10.3794 47.6458 10.7827V15.0715H26.3542V10.7827C26.3542 10.3794 26.1939 9.99252 25.9087 9.70731C25.6235 9.4221 25.2367 9.26187 24.8333 9.26187C24.43 9.26187 24.0431 9.4221 23.7579 9.70731C23.4727 9.99252 23.3125 10.3794 23.3125 10.7827V15.0715H17.4269C15.4101 15.0715 13.476 15.8726 12.0499 17.2987C10.6238 18.7247 9.82269 20.6589 9.82269 22.6756V56.134C9.82269 58.1507 10.6238 60.0849 12.0499 61.5109C13.476 62.937 15.4101 63.7381 17.4269 63.7381H56.5731C57.5717 63.7381 58.5605 63.5414 59.4831 63.1593C60.4057 62.7771 61.244 62.217 61.9501 61.5109C62.6562 60.8048 63.2163 59.9665 63.5984 59.0439C63.9806 58.1214 64.1773 57.1325 64.1773 56.134V22.6756C64.1773 21.677 63.9806 20.6882 63.5984 19.7656C63.2163 18.8431 62.6562 18.0048 61.9501 17.2987C61.244 16.5926 60.4057 16.0324 59.4831 15.6503C58.5605 15.2681 57.5717 15.0715 56.5731 15.0715ZM61.1356 56.134C61.1356 57.344 60.6549 58.5045 59.7993 59.3601C58.9436 60.2158 57.7832 60.6965 56.5731 60.6965H17.4269C16.2168 60.6965 15.0563 60.2158 14.2007 59.3601C13.345 58.5045 12.8644 57.344 12.8644 56.134V30.5231H61.1356V56.134ZM61.1356 27.4815H12.8644V22.6756C12.8644 21.4656 13.345 20.3051 14.2007 19.4494C15.0563 18.5938 16.2168 18.1131 17.4269 18.1131H23.3125V19.9077C23.3125 20.3111 23.4727 20.6979 23.7579 20.9831C24.0431 21.2683 24.43 21.4285 24.8333 21.4285C25.2367 21.4285 25.6235 21.2683 25.9087 20.9831C26.1939 20.6979 26.3542 20.3111 26.3542 19.9077V18.1131H47.6458V19.9077C47.6458 20.3111 47.806 20.6979 48.0913 20.9831C48.3765 21.2683 48.7633 21.4285 49.1666 21.4285C49.57 21.4285 49.9568 21.2683 50.242 20.9831C50.5273 20.6979 50.6875 20.3111 50.6875 19.9077V18.1131H56.5883C57.7984 18.1131 58.9589 18.5938 59.8145 19.4494C60.6701 20.3051 61.1508 21.4656 61.1508 22.6756L61.1356 27.4815Z" fill="#262B5B"/>
<path d="M35.4548 52.2346V41.7134C35.4548 41.6729 35.444 41.6332 35.4235 41.5983C35.4031 41.5634 35.3737 41.5345 35.3384 41.5147C35.3031 41.4949 35.2631 41.4848 35.2227 41.4855C35.1822 41.4862 35.1427 41.4977 35.1081 41.5188L33.1675 42.7111C33.0983 42.754 33.0189 42.7776 32.9375 42.7794C32.8561 42.7812 32.7757 42.7612 32.7046 42.7215C32.6335 42.6818 32.5744 42.6238 32.5333 42.5535C32.4922 42.4832 32.4707 42.4032 32.4709 42.3218V40.3447C32.4707 40.1866 32.5114 40.0312 32.5893 39.8936C32.6671 39.7561 32.7794 39.6411 32.915 39.5599L35.2389 38.1699C35.3803 38.0847 35.5422 38.0395 35.7073 38.0391H37.6083C37.7282 38.0391 37.8468 38.0627 37.9575 38.1086C38.0682 38.1544 38.1688 38.2216 38.2536 38.3064C38.3383 38.3911 38.4055 38.4917 38.4514 38.6024C38.4972 38.7131 38.5208 38.8318 38.5208 38.9516V52.2346C38.5208 52.3544 38.4972 52.473 38.4514 52.5838C38.4055 52.6945 38.3383 52.7951 38.2536 52.8798C38.1688 52.9645 38.0682 53.0317 37.9575 53.0776C37.8468 53.1235 37.7282 53.1471 37.6083 53.1471H36.3643C36.1228 53.1462 35.8915 53.0498 35.721 52.8787C35.5505 52.7077 35.4548 52.476 35.4548 52.2346Z" fill="#262B5B"/>
</svg>
