<svg width="66" height="58" viewBox="0 0 66 58" fill="none" xmlns="http://www.w3.org/2000/svg">
<path d="M4.59132 58C3.5085 58 2.46983 57.5205 1.70293 56.6666C0.936038 55.8128 0.503462 54.6541 0.5 53.4446V47.1759L0.509811 9.13271C0.509811 6.71056 1.37122 4.38762 2.90454 2.67491C4.43785 0.962193 6.51747 0 8.68591 0H57.3239C58.3976 0 59.4608 0.236225 60.4528 0.695187C61.4447 1.15415 62.3461 1.82686 63.1053 2.67491C63.8645 3.52296 64.4667 4.52974 64.8776 5.63777C65.2885 6.7458 65.5 7.93338 65.5 9.13271V39.8551C65.5 41.0545 65.2885 42.242 64.8776 43.3501C64.4667 44.4581 63.8645 45.4649 63.1053 46.3129C62.3461 47.161 61.4447 47.8337 60.4528 48.2927C59.4608 48.7516 58.3976 48.9878 57.3239 48.9878H16.3714C15.7274 48.986 15.0894 49.1268 14.4944 49.402C13.8993 49.6773 13.3591 50.0816 12.9048 50.5915L7.48239 56.6593C7.1034 57.0846 6.65287 57.422 6.1567 57.6521C5.66054 57.8822 5.12854 58.0004 4.59132 58ZM8.68591 3.66039C7.38485 3.66039 6.13708 4.23771 5.21709 5.26533C4.2971 6.29296 3.78025 7.68673 3.78025 9.14001L3.75409 47.1723V53.4336C3.75445 53.6142 3.80271 53.7906 3.89278 53.9405C3.98284 54.0904 4.11068 54.2072 4.26012 54.276C4.40957 54.3448 4.57392 54.3626 4.73241 54.3271C4.8909 54.2916 5.03641 54.2044 5.15057 54.0766L10.5926 48.0015C11.3496 47.151 12.2502 46.4767 13.2422 46.0177C14.2341 45.5587 15.2977 45.3241 16.3714 45.3275H57.3239C58.625 45.3275 59.8727 44.7501 60.7927 43.7225C61.7127 42.6949 62.2296 41.3011 62.2296 39.8478V9.14001C62.2296 7.68673 61.7127 6.29296 60.7927 5.26533C59.8727 4.23771 58.625 3.66039 57.3239 3.66039H8.68591Z" fill="white"/>
</svg>
