<svg width="74" height="74" viewBox="0 0 74 74" fill="none" xmlns="http://www.w3.org/2000/svg">
<path d="M56.8443 64.5558H17.1495C15.1051 64.5558 13.1445 63.7437 11.6989 62.2981C10.2533 60.8525 9.44116 58.8919 9.44116 56.8475V17.1527C9.44116 15.1083 10.2533 13.1476 11.6989 11.7021C13.1445 10.2565 15.1051 9.44434 17.1495 9.44434H56.8443C58.8887 9.44434 60.8494 10.2565 62.2949 11.7021C63.7405 13.1476 64.5527 15.1083 64.5527 17.1527V56.8475C64.5527 58.8919 63.7405 60.8525 62.2949 62.2981C60.8494 63.7437 58.8887 64.5558 56.8443 64.5558ZM17.1495 12.5277C15.9229 12.5277 14.7465 13.0149 13.8791 13.8823C13.0118 14.7497 12.5245 15.926 12.5245 17.1527V56.8475C12.5245 58.0741 13.0118 59.2505 13.8791 60.1179C14.7465 60.9852 15.9229 61.4725 17.1495 61.4725H56.8443C58.071 61.4725 59.2473 60.9852 60.1147 60.1179C60.9821 59.2505 61.4693 58.0741 61.4693 56.8475V17.1527C61.4693 15.926 60.9821 14.7497 60.1147 13.8823C59.2473 13.0149 58.071 12.5277 56.8443 12.5277H17.1495Z" fill="white"/>
<path d="M20.1774 25.5391C19.7701 25.5321 19.3809 25.37 19.089 25.0859C18.7999 24.7968 18.6376 24.4047 18.6376 23.9959C18.6376 23.5871 18.7999 23.1951 19.089 22.906C19.3801 22.6211 19.7701 22.4598 20.1774 22.4558H23.2792C23.6862 22.4611 24.0758 22.6222 24.3676 22.906C24.5112 23.0492 24.6252 23.2193 24.703 23.4066C24.7808 23.5939 24.8208 23.7947 24.8209 23.9975C24.8209 24.4064 24.6584 24.7985 24.3693 25.0876C24.0802 25.3767 23.6881 25.5391 23.2792 25.5391H20.1774Z" fill="white"/>
<path d="M20.1773 38.5416C19.7707 38.5341 19.382 38.3733 19.0889 38.0914C18.9453 37.9482 18.8314 37.7781 18.7537 37.5908C18.676 37.4035 18.636 37.2027 18.636 36.9999C18.636 36.7971 18.676 36.5963 18.7537 36.409C18.8314 36.2218 18.9453 36.0516 19.0889 35.9084C19.3808 35.6246 19.7703 35.4635 20.1773 35.4583H23.2792C23.6859 35.4651 24.0749 35.626 24.3676 35.9084C24.5111 36.0516 24.6251 36.2218 24.7028 36.409C24.7805 36.5963 24.8205 36.7971 24.8205 36.9999C24.8205 37.2027 24.7805 37.4035 24.7028 37.5908C24.6251 37.7781 24.5111 37.9482 24.3676 38.0914C24.0757 38.3752 23.6862 38.5363 23.2792 38.5416H20.1773Z" fill="white"/>
<path d="M20.1774 51.5533C19.7701 51.5462 19.3809 51.3842 19.089 51.1001C18.7999 50.8109 18.6376 50.4189 18.6376 50.0101C18.6376 49.6013 18.7999 49.2092 19.089 48.9201C19.3808 48.6364 19.7703 48.4753 20.1774 48.47H23.2792C23.6862 48.4753 24.0758 48.6364 24.3676 48.9201C24.5112 49.0633 24.6252 49.2334 24.703 49.4207C24.7808 49.608 24.8208 49.8088 24.8209 50.0116C24.8209 50.4205 24.6584 50.8126 24.3693 51.1018C24.0802 51.3909 23.6881 51.5533 23.2792 51.5533H20.1774Z" fill="white"/>
<path d="M32.5415 25.533C32.1327 25.533 31.7405 25.3706 31.4514 25.0815C31.1623 24.7924 30.9999 24.4002 30.9999 23.9914C30.9999 23.5825 31.1623 23.1904 31.4514 22.9013C31.7405 22.6121 32.1327 22.4497 32.5415 22.4497H53.8165C54.2254 22.4497 54.6176 22.6121 54.9067 22.9013C55.1958 23.1904 55.3582 23.5825 55.3582 23.9914C55.3582 24.4002 55.1958 24.7924 54.9067 25.0815C54.6176 25.3706 54.2254 25.533 53.8165 25.533H32.5415Z" fill="white"/>
<path d="M32.5415 38.5416C32.1327 38.5416 31.7405 38.3792 31.4514 38.09C31.1623 37.8009 30.9999 37.4088 30.9999 36.9999C30.9999 36.591 31.1623 36.1989 31.4514 35.9098C31.7405 35.6207 32.1327 35.4583 32.5415 35.4583H53.8165C54.2254 35.4583 54.6176 35.6207 54.9067 35.9098C55.1958 36.1989 55.3582 36.591 55.3582 36.9999C55.3582 37.4088 55.1958 37.8009 54.9067 38.09C54.6176 38.3792 54.2254 38.5416 53.8165 38.5416H32.5415Z" fill="white"/>
<path d="M32.5415 51.5472C32.1327 51.5472 31.7405 51.3848 31.4514 51.0957C31.1623 50.8065 30.9999 50.4144 30.9999 50.0055C30.9999 49.5967 31.1623 49.2045 31.4514 48.9154C31.7405 48.6263 32.1327 48.4639 32.5415 48.4639H53.8165C54.2254 48.4639 54.6176 48.6263 54.9067 48.9154C55.1958 49.2045 55.3582 49.5967 55.3582 50.0055C55.3582 50.4144 55.1958 50.8065 54.9067 51.0957C54.6176 51.3848 54.2254 51.5472 53.8165 51.5472H32.5415Z" fill="white"/>
</svg>
