<svg width="38" height="38" viewBox="0 0 38 38" fill="none" xmlns="http://www.w3.org/2000/svg">
<path fill-rule="evenodd" clip-rule="evenodd" d="M20.9636 22.3244C18.3133 24.4471 14.4338 24.28 11.977 21.8232C9.34099 19.1872 9.34099 14.9133 11.977 12.2773C14.6131 9.64122 18.887 9.64122 21.523 12.2773C23.9798 14.734 24.1469 18.6135 22.0242 21.2638L27.1798 26.4194C27.4727 26.7123 27.4727 27.1872 27.1798 27.4801C26.887 27.773 26.4121 27.773 26.1192 27.4801L20.9636 22.3244ZM13.0377 20.7626C10.9874 18.7123 10.9874 15.3882 13.0377 13.3379C15.0879 11.2877 18.4121 11.2877 20.4624 13.3379C22.5111 15.3867 22.5126 18.7074 20.4669 20.7581C20.4653 20.7596 20.4638 20.761 20.4623 20.7626C20.4608 20.7641 20.4593 20.7656 20.4578 20.7671C18.4072 22.8128 15.0864 22.8113 13.0377 20.7626Z" fill="black"/>
</svg>
