<svg width="46" height="40" viewBox="0 0 46 40" fill="none" xmlns="http://www.w3.org/2000/svg">
<path fill-rule="evenodd" clip-rule="evenodd" d="M0.588059 10.3357C-0.0922233 17.2338 -0.061893 25.1895 0.884733 32.0595C1.40853 35.8609 4.25135 38.775 7.76051 39.1081L11.4279 39.4558C19.075 40.1814 26.7652 40.1814 34.4123 39.4558L38.0796 39.1081C41.5889 38.775 44.4318 35.8609 44.9556 32.0595C45.9021 25.1895 45.9325 17.2343 45.2521 10.3361C45.1642 9.53641 45.0653 8.73779 44.9556 7.94049C44.4318 4.13915 41.5889 1.22491 38.0796 0.892001L34.4123 0.544088C26.7652 -0.181363 19.075 -0.181363 11.4279 0.544088L7.76051 0.892001C4.25135 1.22491 1.40853 4.13915 0.884733 7.94049C0.774898 8.73763 0.676015 9.53614 0.588059 10.3357ZM11.7433 4.50439C19.1804 3.79884 26.6598 3.79884 34.0969 4.50439L37.7642 4.8523C39.5959 5.02607 41.0799 6.54731 41.3533 8.5316C41.3817 8.73768 41.4094 8.94383 41.4364 9.15009L27.9322 17.3377C24.8152 19.2275 21.025 19.2275 17.9079 17.3377L4.4039 9.1502C4.43076 8.94391 4.45839 8.73771 4.48678 8.5316C4.76021 6.54731 6.24416 5.02607 8.07595 4.8523L11.7433 4.50439ZM41.882 13.4274C42.3531 19.4371 42.1768 25.4924 41.3533 31.4683C41.0799 33.4527 39.5959 34.9739 37.7642 35.1477L34.0969 35.4957C26.6598 36.2011 19.1804 36.2011 11.7433 35.4957L8.07595 35.1477C6.24416 34.9739 4.76021 33.4527 4.48678 31.4683C3.66334 25.4924 3.48714 19.4374 3.95817 13.4274L16.1389 20.8125C20.3562 23.3694 25.4839 23.3694 29.701 20.8125L41.882 13.4274Z" fill="#262B5B"/>
</svg>
